<?xml version="1.0" encoding="UTF-8" standalone="no"?><svg xmlns="http://www.w3.org/2000/svg" xmlns:xlink="http://www.w3.org/1999/xlink" contentScriptType="application/ecmascript" contentStyleType="text/css" height="327px" preserveAspectRatio="none" style="width:746px;height:327px;" version="1.1" viewBox="0 0 746 327" width="746px" zoomAndPan="magnify"><defs><filter height="300%" id="f15w67gmae0vhj" width="300%" x="-1" y="-1"><feGaussianBlur result="blurOut" stdDeviation="2.0"/><feColorMatrix in="blurOut" result="blurOut2" type="matrix" values="0 0 0 0 0 0 0 0 0 0 0 0 0 0 0 0 0 0 .4 0"/><feOffset dx="4.0" dy="4.0" in="blurOut2" result="blurOut3"/><feBlend in="SourceGraphic" in2="blurOut3" mode="normal"/></filter></defs><g><rect fill="#FEFECE" filter="url(#f15w67gmae0vhj)" height="50" rx="12.5" ry="12.5" style="stroke: #A80036; stroke-width: 1.5;" width="65" x="61.5" y="137"/><line style="stroke: #A80036; stroke-width: 1.5;" x1="61.5" x2="126.5" y1="163.2969" y2="163.2969"/><text fill="#000000" font-family="sans-serif" font-size="14" lengthAdjust="spacingAndGlyphs" textLength="45" x="71.5" y="154.9951">View 1</text><rect fill="#FEFECE" filter="url(#f15w67gmae0vhj)" height="50" rx="12.5" ry="12.5" style="stroke: #A80036; stroke-width: 1.5;" width="65" x="161.5" y="137"/><line style="stroke: #A80036; stroke-width: 1.5;" x1="161.5" x2="226.5" y1="163.2969" y2="163.2969"/><text fill="#000000" font-family="sans-serif" font-size="14" lengthAdjust="spacingAndGlyphs" textLength="45" x="171.5" y="154.9951">View 2</text><rect fill="#FEFECE" filter="url(#f15w67gmae0vhj)" height="50" rx="12.5" ry="12.5" style="stroke: #A80036; stroke-width: 1.5;" width="85" x="649.5" y="137"/><line style="stroke: #A80036; stroke-width: 1.5;" x1="649.5" x2="734.5" y1="163.2969" y2="163.2969"/><text fill="#000000" font-family="sans-serif" font-size="14" lengthAdjust="spacingAndGlyphs" textLength="65" x="659.5" y="154.9951">View n+k</text><ellipse cx="16" cy="162" fill="#000000" filter="url(#f15w67gmae0vhj)" rx="10" ry="10" style="stroke: none; stroke-width: 1.0;"/><rect fill="#FEFECE" filter="url(#f15w67gmae0vhj)" height="308.2969" rx="12.5" ry="12.5" style="stroke: #A80036; stroke-width: 1.5;" width="165" x="261.5" y="8"/><rect fill="#FFFFFF" height="276" rx="12.5" ry="12.5" style="stroke: #FFFFFF; stroke-width: 1.0;" width="159" x="264.5" y="37.2969"/><line style="stroke: #A80036; stroke-width: 1.5;" x1="261.5" x2="426.5" y1="34.2969" y2="34.2969"/><text fill="#000000" font-family="sans-serif" font-size="14" lengthAdjust="spacingAndGlyphs" textLength="45" x="321.5" y="25.9951">View n</text><rect fill="#FEFECE" filter="url(#f15w67gmae0vhj)" height="50.2656" rx="12.5" ry="12.5" style="stroke: #A80036; stroke-width: 1.5;" width="87" x="272.5" y="47.2969"/><line style="stroke: #A80036; stroke-width: 1.5;" x1="272.5" x2="359.5" y1="73.5938" y2="73.5938"/><text fill="#000000" font-family="sans-serif" font-size="14" lengthAdjust="spacingAndGlyphs" textLength="67" x="282.5" y="65.292">Prepare n</text><text fill="#000000" font-family="sans-serif" font-size="12" lengthAdjust="spacingAndGlyphs" textLength="38" x="277.5" y="89.7324">cmd n</text><line style="stroke: #A80036; stroke-width: 1.5; stroke-dasharray: 8.0,10.0;" x1="266.5" x2="419.5" y1="107.2969" y2="107.2969"/><rect fill="#FEFECE" filter="url(#f15w67gmae0vhj)" height="50" rx="12.5" ry="12.5" style="stroke: #A80036; stroke-width: 1.5;" width="121" x="272.5" y="115.2969"/><line style="stroke: #A80036; stroke-width: 1.5;" x1="272.5" x2="393.5" y1="141.5938" y2="141.5938"/><text fill="#000000" font-family="sans-serif" font-size="14" lengthAdjust="spacingAndGlyphs" textLength="101" x="282.5" y="133.292">Precommit n-1</text><line style="stroke: #A80036; stroke-width: 1.5; stroke-dasharray: 8.0,10.0;" x1="266.5" x2="419.5" y1="175.2969" y2="175.2969"/><rect fill="#FEFECE" filter="url(#f15w67gmae0vhj)" height="50" rx="12.5" ry="12.5" style="stroke: #A80036; stroke-width: 1.5;" width="100" x="272.5" y="183.2969"/><line style="stroke: #A80036; stroke-width: 1.5;" x1="272.5" x2="372.5" y1="209.5938" y2="209.5938"/><text fill="#000000" font-family="sans-serif" font-size="14" lengthAdjust="spacingAndGlyphs" textLength="80" x="282.5" y="201.292">Commit n-2</text><line style="stroke: #A80036; stroke-width: 1.5; stroke-dasharray: 8.0,10.0;" x1="266.5" x2="419.5" y1="243.2969" y2="243.2969"/><rect fill="#FEFECE" filter="url(#f15w67gmae0vhj)" height="50" rx="12.5" ry="12.5" style="stroke: #A80036; stroke-width: 1.5;" width="96" x="272.5" y="251.2969"/><line style="stroke: #A80036; stroke-width: 1.5;" x1="272.5" x2="368.5" y1="277.5938" y2="277.5938"/><text fill="#000000" font-family="sans-serif" font-size="14" lengthAdjust="spacingAndGlyphs" textLength="76" x="282.5" y="269.292">Decide n-3</text><rect fill="#FEFECE" filter="url(#f15w67gmae0vhj)" height="308.2969" rx="12.5" ry="12.5" style="stroke: #A80036; stroke-width: 1.5;" width="152" x="462" y="8"/><rect fill="#FFFFFF" height="276" rx="12.5" ry="12.5" style="stroke: #FFFFFF; stroke-width: 1.0;" width="146" x="465" y="37.2969"/><line style="stroke: #A80036; stroke-width: 1.5;" x1="462" x2="614" y1="34.2969" y2="34.2969"/><text fill="#000000" font-family="sans-serif" font-size="14" lengthAdjust="spacingAndGlyphs" textLength="66" x="505" y="25.9951">View n+1</text><rect fill="#FEFECE" filter="url(#f15w67gmae0vhj)" height="50.2656" rx="12.5" ry="12.5" style="stroke: #A80036; stroke-width: 1.5;" width="108" x="473" y="47.2969"/><line style="stroke: #A80036; stroke-width: 1.5;" x1="473" x2="581" y1="73.5938" y2="73.5938"/><text fill="#000000" font-family="sans-serif" font-size="14" lengthAdjust="spacingAndGlyphs" textLength="88" x="483" y="65.292">Prepare n+1</text><text fill="#000000" font-family="sans-serif" font-size="12" lengthAdjust="spacingAndGlyphs" textLength="56" x="478" y="89.7324">cmd n+1</text><line style="stroke: #A80036; stroke-width: 1.5; stroke-dasharray: 8.0,10.0;" x1="467" x2="607" y1="107.2969" y2="107.2969"/><rect fill="#FEFECE" filter="url(#f15w67gmae0vhj)" height="50" rx="12.5" ry="12.5" style="stroke: #A80036; stroke-width: 1.5;" width="107" x="473" y="115.2969"/><line style="stroke: #A80036; stroke-width: 1.5;" x1="473" x2="580" y1="141.5938" y2="141.5938"/><text fill="#000000" font-family="sans-serif" font-size="14" lengthAdjust="spacingAndGlyphs" textLength="87" x="483" y="133.292">Precommit n</text><line style="stroke: #A80036; stroke-width: 1.5; stroke-dasharray: 8.0,10.0;" x1="467" x2="607" y1="175.2969" y2="175.2969"/><rect fill="#FEFECE" filter="url(#f15w67gmae0vhj)" height="50" rx="12.5" ry="12.5" style="stroke: #A80036; stroke-width: 1.5;" width="100" x="473" y="183.2969"/><line style="stroke: #A80036; stroke-width: 1.5;" x1="473" x2="573" y1="209.5938" y2="209.5938"/><text fill="#000000" font-family="sans-serif" font-size="14" lengthAdjust="spacingAndGlyphs" textLength="80" x="483" y="201.292">Commit n-1</text><line style="stroke: #A80036; stroke-width: 1.5; stroke-dasharray: 8.0,10.0;" x1="467" x2="607" y1="243.2969" y2="243.2969"/><rect fill="#FEFECE" filter="url(#f15w67gmae0vhj)" height="50" rx="12.5" ry="12.5" style="stroke: #A80036; stroke-width: 1.5;" width="96" x="473" y="251.2969"/><line style="stroke: #A80036; stroke-width: 1.5;" x1="473" x2="569" y1="277.5938" y2="277.5938"/><text fill="#000000" font-family="sans-serif" font-size="14" lengthAdjust="spacingAndGlyphs" textLength="76" x="483" y="269.292">Decide n-2</text><!--link *start to View1--><path d="M26.05,162 C36.07,162 46.09,162 56.11,162 " fill="none" id="*start-View1" style="stroke: #A80036; stroke-width: 1.0;"/><polygon fill="#A80036" points="61.35,162,52.35,158,56.35,162,52.35,166,61.35,162" style="stroke: #A80036; stroke-width: 1.0;"/><!--link View1 to View2--><path d="M126.81,162 C136.65,162 146.48,162 156.31,162 " fill="none" id="View1-View2" style="stroke: #A80036; stroke-width: 1.0;"/><polygon fill="#A80036" points="161.46,162,152.46,158,156.46,162,152.46,166,161.46,162" style="stroke: #A80036; stroke-width: 1.0;"/><!--link View2 to ViewN--><path d="M226.52,162 C236.42,162 246.32,162 256.22,162 " fill="none" id="View2-ViewN" style="stroke: #A80036; stroke-width: 1.0; stroke-dasharray: 7.0,7.0;"/><polygon fill="#A80036" points="261.4,162,252.4,158,256.4,162,252.4,166,261.4,162" style="stroke: #A80036; stroke-width: 1.0;"/><!--link ViewN to ViewN1--><path d="M426.6,162 C436.61,162 446.61,162 456.62,162 " fill="none" id="ViewN-ViewN1" style="stroke: #A80036; stroke-width: 1.0;"/><polygon fill="#A80036" points="461.85,162,452.85,158,456.85,162,452.85,166,461.85,162" style="stroke: #A80036; stroke-width: 1.0;"/><!--link ViewN1 to ViewNK--><path d="M614.1,162 C624.12,162 634.14,162 644.16,162 " fill="none" id="ViewN1-ViewNK" style="stroke: #A80036; stroke-width: 1.0; stroke-dasharray: 7.0,7.0;"/><polygon fill="#A80036" points="649.4,162,640.4,158,644.4,162,640.4,166,649.4,162" style="stroke: #A80036; stroke-width: 1.0;"/><!--
@startuml

state View1 as "View 1"
state View2 as "View 2"
state ViewN as "View n" {

    state PrepareN as "Prepare n"
    PrepareN: cmd n
    - -
    state PrecommitN as "Precommit n-1"
    - -
    state CommitN as "Commit n-2"
    - -
    state DecideN as "Decide n-3"
}

state ViewN1 as "View n+1" {
    state PrepareN1 as "Prepare n+1"
    PrepareN1: cmd n+1
    - -
    state PrecommitN1 as "Precommit n"
    - -
    state CommitN1 as "Commit n-1"
    - -
    state DecideN1 as "Decide n-2"
}

state ViewNK as "View n+k"

[*] -right-> View1
View1 -right-> View2
View2 -right[dashed]-> ViewN
ViewN -right-> ViewN1
ViewN1 -right[dashed]-> ViewNK
@enduml

PlantUML version 1.2018.13(Mon Nov 26 14:11:51 CLST 2018)
(GPL source distribution)
Java Runtime: OpenJDK Runtime Environment
JVM: OpenJDK 64-Bit Server VM
Java Version: 11.0.15+10-Ubuntu-0ubuntu0.20.04.1
Operating System: Linux
OS Version: 5.4.0-121-generic
Default Encoding: UTF-8
Language: en
Country: US
--></g></svg>