<?xml version="1.0" encoding="UTF-8" standalone="no"?><svg xmlns="http://www.w3.org/2000/svg" xmlns:xlink="http://www.w3.org/1999/xlink" contentScriptType="application/ecmascript" contentStyleType="text/css" height="123px" preserveAspectRatio="none" style="width:1288px;height:123px;" version="1.1" viewBox="0 0 1288 123" width="1288px" zoomAndPan="magnify"><defs><filter height="300%" id="fkvmsfh1e281o" width="300%" x="-1" y="-1"><feGaussianBlur result="blurOut" stdDeviation="2.0"/><feColorMatrix in="blurOut" result="blurOut2" type="matrix" values="0 0 0 0 0 0 0 0 0 0 0 0 0 0 0 0 0 0 .4 0"/><feOffset dx="4.0" dy="4.0" in="blurOut2" result="blurOut3"/><feBlend in="SourceGraphic" in2="blurOut3" mode="normal"/></filter></defs><g><rect fill="#FEFECE" filter="url(#fkvmsfh1e281o)" height="50" rx="12.5" ry="12.5" style="stroke: #A80036; stroke-width: 1.5;" width="65" x="61.5" y="35"/><line style="stroke: #A80036; stroke-width: 1.5;" x1="61.5" x2="126.5" y1="61.2969" y2="61.2969"/><text fill="#000000" font-family="sans-serif" font-size="14" lengthAdjust="spacingAndGlyphs" textLength="45" x="71.5" y="52.9951">View 1</text><rect fill="#FEFECE" filter="url(#fkvmsfh1e281o)" height="50" rx="12.5" ry="12.5" style="stroke: #A80036; stroke-width: 1.5;" width="65" x="161.5" y="35"/><line style="stroke: #A80036; stroke-width: 1.5;" x1="161.5" x2="226.5" y1="61.2969" y2="61.2969"/><text fill="#000000" font-family="sans-serif" font-size="14" lengthAdjust="spacingAndGlyphs" textLength="45" x="171.5" y="52.9951">View 2</text><rect fill="#FEFECE" filter="url(#fkvmsfh1e281o)" height="50" rx="12.5" ry="12.5" style="stroke: #A80036; stroke-width: 1.5;" width="85" x="1191.5" y="35"/><line style="stroke: #A80036; stroke-width: 1.5;" x1="1191.5" x2="1276.5" y1="61.2969" y2="61.2969"/><text fill="#000000" font-family="sans-serif" font-size="14" lengthAdjust="spacingAndGlyphs" textLength="65" x="1201.5" y="52.9951">View n+k</text><ellipse cx="16" cy="60" fill="#000000" filter="url(#fkvmsfh1e281o)" rx="10" ry="10" style="stroke: none; stroke-width: 1.0;"/><rect fill="#FEFECE" filter="url(#fkvmsfh1e281o)" height="104.2969" rx="12.5" ry="12.5" style="stroke: #A80036; stroke-width: 1.5;" width="416" x="262" y="8"/><rect fill="#FFFFFF" height="72" rx="12.5" ry="12.5" style="stroke: #FFFFFF; stroke-width: 1.0;" width="410" x="265" y="37.2969"/><line style="stroke: #A80036; stroke-width: 1.5;" x1="262" x2="678" y1="34.2969" y2="34.2969"/><text fill="#000000" font-family="sans-serif" font-size="14" lengthAdjust="spacingAndGlyphs" textLength="45" x="447.5" y="25.9951">View n</text><rect fill="#FEFECE" filter="url(#fkvmsfh1e281o)" height="50" rx="12.5" ry="12.5" style="stroke: #A80036; stroke-width: 1.5;" width="101" x="365.5" y="47.2969"/><line style="stroke: #A80036; stroke-width: 1.5;" x1="365.5" x2="466.5" y1="73.5938" y2="73.5938"/><text fill="#000000" font-family="sans-serif" font-size="14" lengthAdjust="spacingAndGlyphs" textLength="81" x="375.5" y="65.292">Pre-Commit</text><rect fill="#FEFECE" filter="url(#fkvmsfh1e281o)" height="50" rx="12.5" ry="12.5" style="stroke: #A80036; stroke-width: 1.5;" width="74" x="273" y="47.2969"/><line style="stroke: #A80036; stroke-width: 1.5;" x1="273" x2="347" y1="73.5938" y2="73.5938"/><text fill="#000000" font-family="sans-serif" font-size="14" lengthAdjust="spacingAndGlyphs" textLength="54" x="283" y="65.292">Prepare</text><rect fill="#FEFECE" filter="url(#fkvmsfh1e281o)" height="50" rx="12.5" ry="12.5" style="stroke: #A80036; stroke-width: 1.5;" width="73" x="484.5" y="47.2969"/><line style="stroke: #A80036; stroke-width: 1.5;" x1="484.5" x2="557.5" y1="73.5938" y2="73.5938"/><text fill="#000000" font-family="sans-serif" font-size="14" lengthAdjust="spacingAndGlyphs" textLength="53" x="494.5" y="65.292">Commit</text><rect fill="#FEFECE" filter="url(#fkvmsfh1e281o)" height="50" rx="12.5" ry="12.5" style="stroke: #A80036; stroke-width: 1.5;" width="69" x="575.5" y="47.2969"/><line style="stroke: #A80036; stroke-width: 1.5;" x1="575.5" x2="644.5" y1="73.5938" y2="73.5938"/><text fill="#000000" font-family="sans-serif" font-size="14" lengthAdjust="spacingAndGlyphs" textLength="49" x="585.5" y="65.292">Decide</text><!--link Prepare to PreCommit--><path d="M347.27,72.2969 C351.58,72.2969 355.89,72.2969 360.2,72.2969 " fill="none" id="Prepare-PreCommit" style="stroke: #A80036; stroke-width: 1.0;"/><polygon fill="#A80036" points="365.25,72.2969,356.25,68.2969,360.25,72.2969,356.25,76.2969,365.25,72.2969" style="stroke: #A80036; stroke-width: 1.0;"/><!--link PreCommit to Commit--><path d="M466.86,72.2969 C470.92,72.2969 474.99,72.2969 479.05,72.2969 " fill="none" id="PreCommit-Commit" style="stroke: #A80036; stroke-width: 1.0;"/><polygon fill="#A80036" points="484.2,72.2969,475.2,68.2969,479.2,72.2969,475.2,76.2969,484.2,72.2969" style="stroke: #A80036; stroke-width: 1.0;"/><!--link Commit to Decide--><path d="M557.5,72.2969 C561.64,72.2969 565.77,72.2969 569.9,72.2969 " fill="none" id="Commit-Decide" style="stroke: #A80036; stroke-width: 1.0;"/><polygon fill="#A80036" points="575.14,72.2969,566.14,68.2969,570.14,72.2969,566.14,76.2969,575.14,72.2969" style="stroke: #A80036; stroke-width: 1.0;"/><rect fill="#FEFECE" filter="url(#fkvmsfh1e281o)" height="104.2969" rx="12.5" ry="12.5" style="stroke: #A80036; stroke-width: 1.5;" width="443" x="713.5" y="8"/><rect fill="#FFFFFF" height="72" rx="12.5" ry="12.5" style="stroke: #FFFFFF; stroke-width: 1.0;" width="437" x="716.5" y="37.2969"/><line style="stroke: #A80036; stroke-width: 1.5;" x1="713.5" x2="1156.5" y1="34.2969" y2="34.2969"/><text fill="#000000" font-family="sans-serif" font-size="14" lengthAdjust="spacingAndGlyphs" textLength="66" x="902" y="25.9951">View n+1</text><rect fill="#FEFECE" filter="url(#fkvmsfh1e281o)" height="50" rx="12.5" ry="12.5" style="stroke: #A80036; stroke-width: 1.5;" width="101" x="825.5" y="47.2969"/><line style="stroke: #A80036; stroke-width: 1.5;" x1="825.5" x2="926.5" y1="73.5938" y2="73.5938"/><text fill="#000000" font-family="sans-serif" font-size="14" lengthAdjust="spacingAndGlyphs" textLength="81" x="835.5" y="65.292">Pre-Commit</text><rect fill="#FEFECE" filter="url(#fkvmsfh1e281o)" height="50" rx="12.5" ry="12.5" style="stroke: #A80036; stroke-width: 1.5;" width="83" x="724.5" y="47.2969"/><line style="stroke: #A80036; stroke-width: 1.5;" x1="724.5" x2="807.5" y1="73.5938" y2="73.5938"/><text fill="#000000" font-family="sans-serif" font-size="14" lengthAdjust="spacingAndGlyphs" textLength="63" x="734.5" y="65.292">Prepare1</text><rect fill="#FEFECE" filter="url(#fkvmsfh1e281o)" height="50" rx="12.5" ry="12.5" style="stroke: #A80036; stroke-width: 1.5;" width="82" x="945" y="47.2969"/><line style="stroke: #A80036; stroke-width: 1.5;" x1="945" x2="1027" y1="73.5938" y2="73.5938"/><text fill="#000000" font-family="sans-serif" font-size="14" lengthAdjust="spacingAndGlyphs" textLength="62" x="955" y="65.292">Commit1</text><rect fill="#FEFECE" filter="url(#fkvmsfh1e281o)" height="50" rx="12.5" ry="12.5" style="stroke: #A80036; stroke-width: 1.5;" width="78" x="1045" y="47.2969"/><line style="stroke: #A80036; stroke-width: 1.5;" x1="1045" x2="1123" y1="73.5938" y2="73.5938"/><text fill="#000000" font-family="sans-serif" font-size="14" lengthAdjust="spacingAndGlyphs" textLength="58" x="1055" y="65.292">Decide1</text><!--link Prepare1 to PreCommit1--><path d="M807.68,72.2969 C811.81,72.2969 815.94,72.2969 820.06,72.2969 " fill="none" id="Prepare1-PreCommit1" style="stroke: #A80036; stroke-width: 1.0;"/><polygon fill="#A80036" points="825.29,72.2969,816.29,68.2969,820.29,72.2969,816.29,76.2969,825.29,72.2969" style="stroke: #A80036; stroke-width: 1.0;"/><!--link PreCommit1 to Commit1--><path d="M926.7,72.2969 C931.03,72.2969 935.36,72.2969 939.69,72.2969 " fill="none" id="PreCommit1-Commit1" style="stroke: #A80036; stroke-width: 1.0;"/><polygon fill="#A80036" points="944.77,72.2969,935.77,68.2969,939.77,72.2969,935.77,76.2969,944.77,72.2969" style="stroke: #A80036; stroke-width: 1.0;"/><!--link Commit1 to Decide1--><path d="M1027.34,72.2969 C1031.39,72.2969 1035.44,72.2969 1039.48,72.2969 " fill="none" id="Commit1-Decide1" style="stroke: #A80036; stroke-width: 1.0;"/><polygon fill="#A80036" points="1044.61,72.2969,1035.61,68.2969,1039.61,72.2969,1035.61,76.2969,1044.61,72.2969" style="stroke: #A80036; stroke-width: 1.0;"/><!--link *start to View1--><path d="M26.05,60 C36.07,60 46.09,60 56.11,60 " fill="none" id="*start-View1" style="stroke: #A80036; stroke-width: 1.0;"/><polygon fill="#A80036" points="61.35,60,52.35,56,56.35,60,52.35,64,61.35,60" style="stroke: #A80036; stroke-width: 1.0;"/><!--link View1 to View2--><path d="M126.81,60 C136.65,60 146.48,60 156.31,60 " fill="none" id="View1-View2" style="stroke: #A80036; stroke-width: 1.0;"/><polygon fill="#A80036" points="161.46,60,152.46,56,156.46,60,152.46,64,161.46,60" style="stroke: #A80036; stroke-width: 1.0;"/><!--link View2 to ViewN--><path d="M226.61,60 C236.6,60 246.58,60 256.57,60 " fill="none" id="View2-ViewN" style="stroke: #A80036; stroke-width: 1.0; stroke-dasharray: 7.0,7.0;"/><polygon fill="#A80036" points="261.79,60,252.79,56,256.79,60,252.79,64,261.79,60" style="stroke: #A80036; stroke-width: 1.0;"/><!--link ViewN to ViewN1--><path d="M678.43,60 C688.32,60 698.2,60 708.09,60 " fill="none" id="ViewN-ViewN1" style="stroke: #A80036; stroke-width: 1.0;"/><polygon fill="#A80036" points="713.26,60,704.26,56,708.26,60,704.26,64,713.26,60" style="stroke: #A80036; stroke-width: 1.0;"/><!--link ViewN1 to ViewNK--><path d="M1156.62,60 C1166.49,60 1176.36,60 1186.22,60 " fill="none" id="ViewN1-ViewNK" style="stroke: #A80036; stroke-width: 1.0; stroke-dasharray: 7.0,7.0;"/><polygon fill="#A80036" points="1191.38,60,1182.38,56,1186.38,60,1182.38,64,1191.38,60" style="stroke: #A80036; stroke-width: 1.0;"/><!--
@startuml

state View1 as "View 1"
state View2 as "View 2"
state ViewN as "View n" {

    state PreCommit as "Pre-Commit"

    Prepare -right-> PreCommit
    PreCommit -right-> Commit
    Commit -right-> Decide

}

state ViewN1 as "View n+1" {

    state PreCommit1 as "Pre-Commit"

    Prepare1 -right-> PreCommit1
    PreCommit1 -right-> Commit1
    Commit1 -right-> Decide1

}

state ViewNK as "View n+k"

[*] -right-> View1
View1 -right-> View2
View2 -right[dashed]-> ViewN
ViewN -right-> ViewN1
ViewN1 -right[dashed]-> ViewNK
@enduml

PlantUML version 1.2018.13(Mon Nov 26 14:11:51 CLST 2018)
(GPL source distribution)
Java Runtime: OpenJDK Runtime Environment
JVM: OpenJDK 64-Bit Server VM
Java Version: 11.0.15+10-Ubuntu-0ubuntu0.20.04.1
Operating System: Linux
OS Version: 5.4.0-121-generic
Default Encoding: UTF-8
Language: en
Country: US
--></g></svg>